<?xml version="1.0" encoding="utf-8"?>
<!-- Generator: Adobe Illustrator 25.3.0, SVG Export Plug-In . SVG Version: 6.00 Build 0)  -->
<svg version="1.1" id="Capa_1" xmlns="http://www.w3.org/2000/svg" xmlns:xlink="http://www.w3.org/1999/xlink" x="0px" y="0px"
	 viewBox="0 0 750 286.8" style="enable-background:new 0 0 750 286.8;" xml:space="preserve">
<style type="text/css">
	.st0{fill:#24262B;}
	.st1{fill:#00F798;}
	.st2{font-family:'TempusSansITC';}
	.st3{font-size:120.4074px;}
	.st4{fill:#00FFA3;}
	.st5{font-size:133.1237px;}
	.st6{fill:#FFFFFF;}
	.st7{fill:#FFFDFF;}
	.st8{font-family:'ArialMT';}
	.st9{font-size:33.2809px;}
	.st10{letter-spacing:4;}
	.st11{fill:#A326AA;}
</style>
<g id="BACKGROUND">
	<rect class="st0" width="750" height="286.8"/>
</g>
<g id="OBJECTS">
	<g>
		<g>
			<g>
				<text transform="matrix(0.9916 0 0 1 14.6328 168.7612)" class="st1 st2 st3">BOHO</text>
				<text transform="matrix(0.9916 0 0 1 437.5312 168.7612)" class="st4 st2 st5">GIRL</text>
				<path class="st6" d="M383.9,198.2c0.3-18.6,2.3-28.8,2.7-31.2c0.7-4.5,1.7-8.9,2.8-13.3c1-3.6,2.2-7.2,3.5-10.9l2.6-1.3
					c2.8,1.1,5.3,0.9,7.4-0.2c6.6-3.4,9.6-14.8,9.6-14.8c-1.3-0.2-2.5-0.1-3.8,0c0.2-3-0.2-5.2-0.2-5.2c-2.8,0.3-5.2,1.1-7.2,2.1
					c-7.1,3.7-8.7,10.8-8.1,15.2c0-0.1-0.1-0.3-0.1-0.4l-0.8,4c-3.5,4.4-8.2,21.3-10,31.4c-0.1-13.1,1.9-26.7,3.8-37.4
					c0.9-5.3,1.6-10.5,2.8-15.7c22.2-6.9,21.8-19,21.8-19c-0.4,0.1-0.9,0.2-1.3,0.4c0,0,0,0,0,0c-7.3,2.3-14.2,7.9-19.1,12.6
					c0.7-2.8,1.4-5.6,2.2-8.4c2.4-7.9,5.4-15.7,9-23.3l7.7-3.4c4.4,0.6,7.8,0.5,10.9,0c13.6-2.4,20-15.8,21.4-20.3
					c0,0-9.1-4-18.6-0.4c-8.4,3.8-14.8,8.5-17.6,13.6c-0.7,1.4-1,2.7-0.8,3.9c-0.4-0.5-0.8-1-1.1-1.6c-0.1-1,0.2-2.2,0.8-3.3
					c2.8-5.2,9.1-11.6,17.5-15.4c3.2-1.5,6.8-2.5,10.6-2.9c0-1.7-0.1-3.2-0.2-4.6c1-0.3,2.1-0.7,3.2-0.9c2.5-0.7,4.9-1.1,7.5-1.4
					c1.8-0.2,3.7-0.2,5.6-0.1c0,0.2,0,0.3,0.1,0.5c0.2,1,1.2,1.9,2.3,1.8c1.4-0.1,2.4-1.9,1.8-3.1c-0.6-1.3-2.5-1.6-3.5-0.7
					c-0.4,0.3-0.5,0.8-0.6,1.2c-1.9-0.4-3.8-0.6-5.7-0.5c-2.6,0.1-5.2,0.5-7.7,1.2c-1,0.3-2,0.6-3,1c-0.3-2.1-0.6-3.4-0.6-3.4
					c-2.8,0.3-5.3,0.7-7.6,1.2c0.7-1,1.4-1.9,2.2-2.8c1.6-2,3.4-3.8,5.2-5.5c1.4-1.2,2.9-2.3,4.4-3.4c0.1,0.1,0.2,0.3,0.3,0.4
					c0.8,0.7,2.1,0.8,2.9,0.2c1-0.9,0.8-2.9-0.3-3.6c-1.2-0.7-3,0.2-3.3,1.5c-0.1,0.5,0,0.9,0.2,1.3c-1.7,0.8-3.4,1.7-4.9,2.9
					c-2.1,1.6-3.9,3.5-5.6,5.5c-1.1,1.3-2,2.7-3,4.2c-1,0.3-2,0.6-3,1c0.9-2.1,1.8-4.2,2.9-6.2c1.2-2.3,2.6-4.4,4-6.5
					c1.1-1.5,2.4-2.9,3.7-4.2c0.1,0.1,0.3,0.2,0.4,0.3c0.9,0.5,2.2,0.4,2.9-0.4c0.8-1.1,0.2-3-1.1-3.5s-2.9,0.8-2.9,2.1
					c0,0.5,0.2,0.9,0.5,1.3c-1.5,1.1-3,2.4-4.2,3.8c-1.7,2-3.2,4.2-4.4,6.5c-1.2,2.4-2.3,4.8-3.1,7.4c-0.1,0.1-0.3,0.1-0.4,0.2
					c-13,5.8-16,17.2-14.9,25c0,0,0,0,0,0l0,0c-0.5-2.8-0.7-5.3-0.6-7.7c0.6-11.7,8.7-17.4,15.2-20.1c-0.6-2.2-1.4-4.5-2.6-6.7
					c0,0-15.9,11.1-16.6,24.5c-0.2,4,0.9,8.1,4.2,12.3l-1.3,7.6c-4.8,7-8.9,14.5-11.9,22.6c-0.5,1.4-1,2.9-1.5,4.3
					c-0.9-6.3-1.6-10.4-3.6-15.1l0.3-4.1c-0.1,0.1-0.1,0.2-0.2,0.4c1.7-4.1,2-11.4-4-16.8c-1.6-1.5-3.7-2.8-6.4-3.9c0,0-1,2.1-1.5,5
					c-1.1-0.5-2.3-0.8-3.6-1c0,0,0,11.8,5.6,16.8c1.7,1.6,4.1,2.4,7.1,2l2.2,2c0.4,3.9,1.9,7.4,2.5,13.3c0.7,7.2,0.3,8.5-0.5,13.3
					c-0.9,5.2-3.6,21.6-4.4,26.8C380.5,147.8,376.1,168.6,383.9,198.2z"/>
			</g>
			<text transform="matrix(0.9887 0 0 1 150.876 258.2168)" class="st7 st8 st9 st10">LOS MEJORES PRODUCTOS</text>
		</g>
		<rect x="21.3" y="187.6" class="st11" width="743.4" height="2.6"/>
	</g>
</g>
<g id="DESIGNED_BY_FREEPIK">
</g>
</svg>
